<?xml version="1.0" standalone="no"?>
<!DOCTYPE svg PUBLIC "-//W3C//DTD SVG 20010904//EN"
 "http://www.w3.org/TR/2001/REC-SVG-20010904/DTD/svg10.dtd">
<svg version="1.0" xmlns="http://www.w3.org/2000/svg"
 width="608.000000pt" height="505.000000pt" viewBox="0 0 608.000000 505.000000"
 preserveAspectRatio="xMidYMid meet">

<g transform="translate(0.000000,505.000000) scale(0.100000,-0.100000)"
fill="#000000" stroke="none">
<path d="M3015 4233 c-88 -5 -209 -24 -240 -38 -57 -26 -58 -28 -35 -68 12
-19 22 -55 23 -79 2 -41 1 -43 -28 -46 -16 -2 -34 -8 -39 -13 -6 -5 -17 -9
-26 -9 -8 0 -22 -9 -30 -20 -8 -11 -19 -20 -25 -20 -17 0 -65 24 -65 33 0 4
-8 7 -18 7 -10 0 -24 6 -30 13 -17 16 -359 24 -375 8 -6 -6 -21 -11 -33 -11
-23 0 -93 -33 -128 -60 -95 -74 -122 -114 -134 -195 -10 -66 -6 -149 8 -175
18 -34 98 -117 135 -139 45 -28 179 -62 264 -68 72 -4 78 -6 115 -43 l40 -39
-41 -44 c-23 -25 -49 -60 -59 -78 -9 -19 -39 -58 -65 -87 -47 -51 -49 -56 -49
-111 0 -56 2 -59 45 -99 25 -22 45 -45 45 -50 0 -6 -17 -6 -42 -1 -24 4 -66 8
-94 9 -49 0 -54 -2 -98 -50 -60 -64 -75 -95 -55 -116 13 -12 14 -25 6 -69 -9
-46 -8 -58 6 -73 10 -10 17 -25 17 -33 1 -24 26 -49 61 -60 65 -19 239 -22
364 -5 370 49 464 53 855 30 73 -4 137 -1 211 10 59 9 124 16 146 16 27 0 46
6 57 19 10 11 29 22 43 26 14 3 40 16 57 29 37 28 94 48 109 39 6 -3 7 -1 3 5
-5 8 4 12 27 12 34 0 141 43 152 61 4 5 11 7 16 4 12 -8 12 23 -1 38 -6 7 -19
23 -29 37 -18 23 -22 24 -53 13 -40 -15 -188 -37 -195 -29 -9 9 18 36 92 91
99 74 122 100 105 120 -21 25 -66 45 -99 45 -19 0 -49 -13 -78 -34 -124 -88
-333 -175 -333 -137 0 13 49 51 65 51 21 0 85 105 85 139 0 41 -17 82 -40 98
-11 8 -20 19 -20 24 0 11 -60 69 -72 69 -5 0 -8 4 -8 8 0 5 44 0 98 -9 53 -10
122 -18 153 -19 62 0 169 18 184 31 5 5 17 9 27 9 10 0 18 5 18 10 0 6 7 10
15 10 8 0 15 5 15 10 0 6 6 10 13 10 19 0 82 70 106 118 19 37 23 63 24 160
l2 117 -40 64 c-47 75 -113 131 -188 160 -112 41 -293 36 -397 -12 l-55 -25
-12 34 c-15 42 -44 83 -59 84 -7 0 -22 6 -36 13 -29 15 -27 33 18 113 27 49
32 64 21 72 -26 22 -105 50 -197 70 -111 24 -157 29 -225 25z m215 -59 c84
-18 150 -42 150 -56 0 -11 -50 -98 -56 -98 -3 0 -20 6 -39 14 -61 26 -192 39
-325 33 l-127 -5 -16 37 c-10 21 -17 40 -17 44 0 10 96 38 162 46 76 11 167 5
268 -15z m-757 -227 c46 -15 117 -55 117 -68 0 -3 -31 -17 -69 -32 l-69 -27
-48 22 c-136 60 -321 19 -385 -86 -16 -27 -28 -116 -15 -116 3 0 19 14 36 31
36 37 47 34 25 -7 -16 -32 -20 -100 -6 -108 5 -3 11 1 15 9 9 24 26 17 26 -10
0 -14 13 -39 30 -57 l29 -33 1 25 c1 50 14 54 53 15 19 -19 49 -38 66 -41 26
-6 31 -11 31 -35 0 -28 -2 -29 -46 -29 -128 0 -275 67 -330 150 -55 83 -43
225 26 303 41 46 125 91 202 107 61 13 254 5 311 -13z m782 -11 c102 -21 175
-53 175 -77 0 -17 -6 -16 -67 8 -156 61 -410 79 -595 43 -86 -16 -116 -11 -60
11 98 40 390 47 547 15z m20 -105 c174 -41 235 -89 276 -220 24 -79 28 -220 7
-266 -28 -60 -53 -95 -70 -95 -10 0 -17 -5 -15 -12 1 -6 -9 -17 -23 -24 -20
-11 -27 -11 -40 0 -46 41 -147 38 -284 -8 -60 -20 -126 -36 -146 -36 -37 0
-143 32 -164 49 -6 5 -32 21 -58 35 -55 30 -145 38 -134 11 3 -10 -1 -15 -13
-15 -10 0 -24 7 -31 15 -7 8 -24 15 -37 15 -18 0 -24 4 -19 15 7 18 -55 38
-66 21 -4 -7 -16 -2 -32 14 -23 21 -26 31 -26 95 0 131 56 274 133 340 36 31
144 77 207 89 14 2 120 3 235 1 168 -3 228 -8 300 -24z m659 -12 c71 -26 152
-99 182 -164 31 -65 31 -144 3 -222 -41 -108 -102 -173 -199 -209 -53 -19
-214 -22 -278 -4 -39 10 -41 12 -31 34 9 20 21 24 76 29 47 5 81 15 120 37 30
17 57 29 60 26 3 -3 1 -19 -5 -35 -14 -41 1 -41 39 0 28 30 49 83 49 127 0 29
10 28 36 -5 21 -26 23 -26 30 -9 4 10 0 40 -9 67 -17 55 -14 59 20 28 20 -19
23 -20 29 -6 17 44 -47 139 -124 185 -42 24 -56 27 -142 27 -91 0 -108 -4
-182 -43 -5 -2 -8 2 -8 9 0 7 -11 27 -25 45 -14 18 -25 35 -25 38 0 3 13 12
30 21 92 48 261 59 354 24z m-1437 -525 c-3 -3 -12 -4 -19 -1 -8 3 -5 6 6 6
11 1 17 -2 13 -5z m185 -35 c16 -9 18 -13 7 -20 -14 -8 -39 6 -39 22 0 12 7
11 32 -2z m-146 -39 c32 -12 97 -27 144 -35 47 -9 105 -22 130 -30 69 -22 178
-37 225 -30 23 4 120 8 216 9 142 1 180 5 208 18 38 20 51 16 98 -34 102 -107
57 -219 -125 -309 -82 -40 -193 -51 -255 -26 -20 9 -37 20 -37 26 0 5 14 3 30
-5 17 -9 38 -14 48 -11 14 3 12 6 -10 17 -40 19 -34 32 7 14 39 -16 73 -18 95
-4 11 7 4 11 -28 16 -68 11 -49 22 50 30 87 7 91 8 71 23 l-20 17 23 49 c13
27 24 50 24 51 0 2 -10 4 -22 6 -19 2 -24 11 -28 43 l-5 40 -184 3 c-116 1
-188 -1 -195 -8 -5 -5 -22 -10 -37 -10 -37 0 -79 -17 -106 -42 -18 -17 -31
-20 -68 -16 -56 7 -72 19 -87 69 -12 42 -19 47 -38 24 -12 -15 -10 -64 5 -97
5 -13 -1 -26 -24 -47 -32 -30 -39 -59 -20 -78 16 -16 -24 -35 -58 -27 -153 33
-244 151 -199 258 14 35 88 116 105 116 4 0 34 -9 67 -20z m814 0 c0 -15 -35
-30 -69 -30 -45 0 -38 15 12 27 57 14 57 14 57 3z m-27 -217 c6 -51 4 -60 -15
-76 -40 -33 -53 -19 -56 61 l-3 72 34 0 34 0 6 -57z m-349 41 c12 -5 16 -20
16 -64 0 -56 -8 -70 -41 -70 -12 0 -12 37 1 45 20 13 11 55 -15 67 -38 17 -1
37 39 22z m-694 -47 c0 -26 61 -98 105 -126 25 -16 87 -42 139 -60 51 -17 122
-44 156 -60 51 -24 60 -32 44 -37 -10 -4 -42 -17 -71 -30 -28 -12 -53 -21 -55
-18 -2 2 -28 -17 -58 -41 -55 -45 -96 -57 -106 -31 -3 8 -1 24 6 35 16 31 -14
28 -47 -5 -23 -23 -27 -24 -41 -10 -14 14 -14 17 1 34 35 39 9 45 -29 7 -20
-20 -26 -22 -30 -10 -15 38 76 105 142 105 39 0 28 14 -39 47 -119 58 -171
124 -146 184 12 30 29 39 29 16z m644 -6 c9 -14 -21 -32 -63 -38 -43 -6 -47
-23 -5 -23 29 0 32 -20 4 -27 -23 -6 -27 -23 -5 -23 19 0 20 -16 1 -23 -26
-10 -126 5 -126 19 0 7 5 16 10 19 6 3 10 21 10 39 0 44 14 54 85 59 33 2 65
4 72 5 6 1 14 -2 17 -7z m1064 -73 c17 -15 6 -27 -91 -91 -87 -57 -146 -90
-187 -102 -19 -5 -15 1 18 26 64 50 29 47 -73 -5 -69 -36 -92 -43 -106 -35
-27 14 -24 26 9 34 45 11 264 120 317 159 50 36 82 40 113 14z m-955 -67 c20
-12 37 -29 37 -36 0 -8 10 -21 22 -29 l21 -15 -29 -12 c-49 -20 -229 -14 -304
10 -115 36 -115 46 1 46 97 0 102 1 124 27 12 14 36 28 51 31 36 5 32 6 77
-22z m-867 -90 c16 -5 42 -12 57 -16 24 -5 27 -8 16 -21 -22 -27 -151 8 -134
36 8 12 24 13 61 1z m1259 -52 c48 -13 75 -35 75 -62 0 -14 -4 -17 -17 -12
-10 4 -31 10 -47 13 -26 4 -27 3 -16 -17 19 -36 7 -43 -30 -16 -48 35 -99 31
-55 -5 23 -19 18 -40 -10 -40 -17 0 -32 10 -47 35 -18 26 -40 41 -93 62 -38
15 -69 33 -68 38 6 24 224 27 308 4z m-1315 -4 c61 -16 82 -30 101 -67 19 -37
19 -39 2 -35 -10 3 -29 9 -43 12 -59 17 -130 57 -130 74 0 23 10 32 29 27 9
-2 27 -7 41 -11z m1930 1 c0 -2 3 -11 6 -19 4 -12 -18 -23 -103 -51 -119 -38
-291 -76 -346 -76 -55 0 -101 -11 -85 -21 7 -5 23 -9 36 -9 45 0 20 -17 -42
-28 -89 -17 -141 -15 -301 12 -142 23 -181 24 -129 0 27 -11 24 -12 -41 -12
-38 0 -133 5 -210 12 -151 14 -313 12 -329 -4 -7 -7 26 -10 94 -10 62 0 99 -4
90 -9 -8 -5 -97 -18 -197 -31 -209 -25 -342 -25 -369 2 -16 16 -14 17 32 16
164 -5 213 16 67 27 -135 11 -157 17 -161 44 -4 23 -2 24 40 18 284 -41 289
-41 551 -21 107 9 99 26 -18 36 l-30 3 45 27 c80 48 331 62 455 25 l40 -11
-75 -7 c-93 -8 -210 -26 -217 -32 -9 -9 124 -19 148 -11 13 4 59 6 102 5 66
-1 87 -6 135 -32 54 -29 61 -30 132 -23 44 4 92 15 115 27 22 11 82 29 134 39
124 23 139 38 38 38 -61 0 -77 3 -77 15 0 20 19 23 215 34 94 6 184 15 200 20
33 10 55 13 55 7z"/>
<path d="M2683 3805 c-34 -14 -48 -43 -15 -30 33 14 98 17 135 7 49 -14 47 2
-3 22 -49 19 -75 20 -117 1z"/>
<path d="M2673 3735 c-37 -16 -58 -46 -68 -95 -4 -19 -12 -40 -17 -47 -7 -8 1
-15 29 -23 54 -17 199 -25 207 -12 11 18 19 100 12 127 -8 31 -60 65 -101 65
-16 -1 -44 -7 -62 -15z m75 -21 c32 -9 27 -24 -8 -24 -36 0 -80 -39 -80 -70 0
-11 -7 -20 -15 -20 -45 0 28 117 75 119 3 1 15 -2 28 -5z m30 -62 c2 -7 -3
-12 -12 -12 -9 0 -16 7 -16 16 0 17 22 14 28 -4z"/>
<path d="M3246 3737 c-16 -12 -11 -14 43 -14 48 0 68 -5 92 -22 44 -33 60 -20
22 17 -28 28 -38 32 -85 32 -30 0 -62 -6 -72 -13z"/>
<path d="M2960 3661 c-19 -10 -49 -39 -67 -66 -26 -37 -33 -57 -33 -96 0 -44
3 -50 32 -65 40 -21 144 -29 180 -15 36 14 68 66 68 111 -1 52 -33 116 -69
134 -39 21 -69 20 -111 -3z"/>
<path d="M3260 3663 c-31 -11 -60 -48 -80 -100 -11 -30 -20 -56 -20 -58 0 -2
23 -11 52 -20 59 -17 203 -21 193 -5 -4 6 -1 33 6 60 10 38 10 55 1 75 -19 41
-101 67 -152 48z m88 -39 c26 -18 31 -78 9 -109 -20 -26 -39 -11 -27 20 14 38
-4 74 -41 82 -22 4 -27 8 -17 14 20 13 51 11 76 -7z m-42 -36 c4 -6 2 -14 -4
-16 -7 -2 -12 -11 -13 -20 0 -14 -2 -14 -6 -2 -3 8 -10 18 -16 21 -12 9 0 29
18 29 8 0 17 -5 21 -12z"/>
<path d="M2722 3389 c7 -49 42 -60 239 -76 204 -17 247 -12 296 33 20 19 23
24 9 20 -72 -24 -115 -28 -194 -21 -48 4 -133 10 -190 14 -83 6 -108 11 -133
30 l-31 23 4 -23z"/>
<path d="M2890 3271 c0 -15 56 -33 91 -29 40 4 41 21 2 25 -16 1 -43 5 -60 7
-18 3 -33 1 -33 -3z"/>
</g>
</svg>
